<?xml version="1.0" encoding="UTF-8" standalone="no"?><svg xmlns="http://www.w3.org/2000/svg" xmlns:xlink="http://www.w3.org/1999/xlink" contentStyleType="text/css" height="331px" preserveAspectRatio="none" style="width:2877px;height:331px;background:#FFFFFF;" version="1.1" viewBox="0 0 2877 331" width="2877px" zoomAndPan="magnify"><defs/><g><!--MD5=[db8075859b8dc6afee89c0188a9ca649]
entity Utilisateur--><g id="elem_Utilisateur"><ellipse cx="1435.5" cy="14" fill="#F1F1F1" rx="8" ry="8" style="stroke:#181818;stroke-width:0.5;"/><path d="M1435.5,22 L1435.5,49 M1422.5,30 L1448.5,30 M1435.5,49 L1422.5,64 M1435.5,49 L1448.5,64 " fill="none" style="stroke:#181818;stroke-width:0.5;"/><text fill="#000000" font-family="sans-serif" font-size="14" lengthAdjust="spacing" textLength="68" x="1401.5" y="78.4951">Utilisateur</text></g><!--MD5=[15e5ddc83016ae037314666173a341e2]
entity Administrateur--><g id="elem_Administrateur"><ellipse cx="2479.5" cy="14" fill="#F1F1F1" rx="8" ry="8" style="stroke:#181818;stroke-width:0.5;"/><path d="M2479.5,22 L2479.5,49 M2466.5,30 L2492.5,30 M2479.5,49 L2466.5,64 M2479.5,49 L2492.5,64 " fill="none" style="stroke:#181818;stroke-width:0.5;"/><text fill="#000000" font-family="sans-serif" font-size="14" lengthAdjust="spacing" textLength="100" x="2429.5" y="78.4951">Administrateur</text></g><g id="elem_Gérer les stocks"><ellipse cx="448.2532" cy="171.4506" fill="#F1F1F1" rx="77.7532" ry="17.9506" style="stroke:#181818;stroke-width:0.5;"/><text fill="#000000" font-family="sans-serif" font-size="14" lengthAdjust="spacing" textLength="113" x="389.1994" y="175.0809">Gérer les stocks</text></g><g id="elem_Planification des repas"><ellipse cx="1040.4604" cy="171.4921" fill="#F1F1F1" rx="95.4604" ry="21.4921" style="stroke:#181818;stroke-width:0.5;"/><text fill="#000000" font-family="sans-serif" font-size="14" lengthAdjust="spacing" textLength="154" x="963.4604" y="174.3388">Planification des repas</text></g><g id="elem_Recommandations de recettes"><ellipse cx="1309.6205" cy="171.5241" fill="#F1F1F1" rx="123.1205" ry="27.0241" style="stroke:#181818;stroke-width:0.5;"/><text fill="#000000" font-family="sans-serif" font-size="14" lengthAdjust="spacing" textLength="214" x="1202.6205" y="174.3708">Recommandations de recettes</text></g><g id="elem_Notifications de repas"><ellipse cx="1560.7229" cy="171.5446" fill="#F1F1F1" rx="93.2229" ry="21.0446" style="stroke:#181818;stroke-width:0.5;"/><text fill="#000000" font-family="sans-serif" font-size="14" lengthAdjust="spacing" textLength="149" x="1486.2229" y="174.3913">Notifications de repas</text></g><g id="elem_Gestion de l'alimentation animale"><ellipse cx="1818.2544" cy="171.2509" fill="#F1F1F1" rx="129.2544" ry="28.2509" style="stroke:#181818;stroke-width:0.5;"/><text fill="#000000" font-family="sans-serif" font-size="14" lengthAdjust="spacing" textLength="227" x="1704.7544" y="174.0976">Gestion de l'alimentation animale</text></g><g id="elem_Listes de courses"><ellipse cx="2064.4455" cy="171.6891" fill="#F1F1F1" rx="81.4455" ry="18.6891" style="stroke:#181818;stroke-width:0.5;"/><text fill="#000000" font-family="sans-serif" font-size="14" lengthAdjust="spacing" textLength="122" x="2002.3109" y="174.909">Listes de courses</text></g><g id="elem_Gérer les utilisateurs"><ellipse cx="2271.6144" cy="171.4229" fill="#F1F1F1" rx="90.1144" ry="20.4229" style="stroke:#181818;stroke-width:0.5;"/><text fill="#000000" font-family="sans-serif" font-size="14" lengthAdjust="spacing" textLength="142" x="2200.6144" y="174.2696">Gérer les utilisateurs</text></g><g id="elem_Gérer les recettes"><ellipse cx="2479.712" cy="171.4424" fill="#F1F1F1" rx="82.712" ry="18.9424" style="stroke:#181818;stroke-width:0.5;"/><text fill="#000000" font-family="sans-serif" font-size="14" lengthAdjust="spacing" textLength="125" x="2416.5208" y="174.5215">Gérer les recettes</text></g><g id="elem_Voir les statistiques des utilisateurs"><ellipse cx="2734.3513" cy="171.2703" fill="#F1F1F1" rx="136.8513" ry="29.7703" style="stroke:#181818;stroke-width:0.5;"/><text fill="#000000" font-family="sans-serif" font-size="14" lengthAdjust="spacing" textLength="243" x="2612.8513" y="174.1169">Voir les statistiques des utilisateurs</text></g><g id="elem_Ajouter un ingrédient"><ellipse cx="97.4431" cy="293.6886" fill="#F1F1F1" rx="91.4431" ry="20.6886" style="stroke:#181818;stroke-width:0.5;"/><text fill="#000000" font-family="sans-serif" font-size="14" lengthAdjust="spacing" textLength="145" x="24.9431" y="296.5353">Ajouter un ingrédient</text></g><g id="elem_Supprimer un ingrédient"><ellipse cx="325.3371" cy="293.6674" fill="#F1F1F1" rx="101.3371" ry="22.6674" style="stroke:#181818;stroke-width:0.5;"/><text fill="#000000" font-family="sans-serif" font-size="14" lengthAdjust="spacing" textLength="167" x="241.8371" y="296.5141">Supprimer un ingrédient</text></g><g id="elem_Mettre à jour un ingrédient"><ellipse cx="570.6701" cy="293.634" fill="#F1F1F1" rx="108.6701" ry="24.134" style="stroke:#181818;stroke-width:0.5;"/><text fill="#000000" font-family="sans-serif" font-size="14" lengthAdjust="spacing" textLength="183" x="479.1701" y="296.4807">Mettre à jour un ingrédient</text></g><g id="elem_Consulter les recettes"><ellipse cx="809.5118" cy="293.4024" fill="#F1F1F1" rx="95.0118" ry="21.4024" style="stroke:#181818;stroke-width:0.5;"/><text fill="#000000" font-family="sans-serif" font-size="14" lengthAdjust="spacing" textLength="153" x="733.0118" y="296.249">Consulter les recettes</text></g><g id="elem_Ajouter une planification"><ellipse cx="1040.4278" cy="293.4856" fill="#F1F1F1" rx="100.4278" ry="22.4856" style="stroke:#181818;stroke-width:0.5;"/><text fill="#000000" font-family="sans-serif" font-size="14" lengthAdjust="spacing" textLength="165" x="957.9278" y="296.3322">Ajouter une planification</text></g><g id="elem_Consulter les recettes recommandées"><ellipse cx="1324.3479" cy="293.4696" fill="#F1F1F1" rx="147.8479" ry="31.9696" style="stroke:#181818;stroke-width:0.5;"/><text fill="#000000" font-family="sans-serif" font-size="14" lengthAdjust="spacing" textLength="266" x="1191.3479" y="296.3163">Consulter les recettes recommandées</text></g><g id="elem_Voir les avis des utilisateurs"><ellipse cx="1619.4443" cy="293.6889" fill="#F1F1F1" rx="111.4443" ry="24.6889" style="stroke:#181818;stroke-width:0.5;"/><text fill="#000000" font-family="sans-serif" font-size="14" lengthAdjust="spacing" textLength="189" x="1524.9443" y="296.5355">Voir les avis des utilisateurs</text></g><g id="elem_Générer la liste de courses"><ellipse cx="1970.5557" cy="293.4111" fill="#F1F1F1" rx="110.0557" ry="24.4111" style="stroke:#181818;stroke-width:0.5;"/><text fill="#000000" font-family="sans-serif" font-size="14" lengthAdjust="spacing" textLength="186" x="1877.5557" y="296.2578">Générer la liste de courses</text></g><g id="elem_Ajouter des ingrédients à la liste"><ellipse cx="2241.4468" cy="293.5894" fill="#F1F1F1" rx="125.9468" ry="27.5894" style="stroke:#181818;stroke-width:0.5;"/><text fill="#000000" font-family="sans-serif" font-size="14" lengthAdjust="spacing" textLength="220" x="2131.4468" y="296.436">Ajouter des ingrédients à la liste</text></g><!--MD5=[7ebbb90b75178593e9d0457d3272b8dd]
link Utilisateur to Gérer les stocks--><g id="link_Utilisateur_Gérer les stocks"><path d="M1401.24,48.87 C1259.41,66.98 716.49,136.29 520.01,161.37 " fill="none" id="Utilisateur-to-Gérer les stocks" style="stroke:#181818;stroke-width:1.0;"/><polygon fill="#181818" points="514.86,162.03,524.2997,164.8393,519.8185,161.387,523.2708,156.9058,514.86,162.03" style="stroke:#181818;stroke-width:1.0;"/></g><!--MD5=[97b62b75be5c43d3337cbd0b4a42fa22]
link Utilisateur to Planification des repas--><g id="link_Utilisateur_Planification des repas"><path d="M1401.48,55.35 C1333.96,76.89 1182.33,125.26 1098.68,151.94 " fill="none" id="Utilisateur-to-Planification des repas" style="stroke:#181818;stroke-width:1.0;"/><polygon fill="#181818" points="1093.76,153.51,1103.5483,154.6001,1098.5258,151.9975,1101.1284,146.9749,1093.76,153.51" style="stroke:#181818;stroke-width:1.0;"/></g><!--MD5=[293b3a7738836f451a4296f875e572e8]
link Utilisateur to Recommandations de recettes--><g id="link_Utilisateur_Recommandations de recettes"><path d="M1401.4,78.6 C1381.86,98.14 1357.58,122.42 1338.89,141.11 " fill="none" id="Utilisateur-to-Recommandations de recettes" style="stroke:#181818;stroke-width:1.0;"/><polygon fill="#181818" points="1335.23,144.77,1344.4224,141.2345,1338.7655,141.2345,1338.7655,135.5776,1335.23,144.77" style="stroke:#181818;stroke-width:1.0;"/></g><!--MD5=[c9946244c73b829fa2cf4bf4455a406c]
link Utilisateur to Notifications de repas--><g id="link_Utilisateur_Notifications de repas"><path d="M1469.66,78.93 C1491.07,100.52 1518.12,127.78 1537.11,146.92 " fill="none" id="Utilisateur-to-Notifications de repas" style="stroke:#181818;stroke-width:1.0;"/><polygon fill="#181818" points="1540.8,150.64,1537.3202,141.4264,1537.286,147.0831,1531.6292,147.0488,1540.8,150.64" style="stroke:#181818;stroke-width:1.0;"/></g><!--MD5=[7cf1135f8d6d28b7ee49fee7c7e80bc8]
link Utilisateur to Gestion de l'alimentation animale--><g id="link_Utilisateur_Gestion de l'alimentation animale"><path d="M1469.83,55.79 C1531.12,75.96 1660.73,118.6 1743.5,145.83 " fill="none" id="Utilisateur-to-Gestion de l'alimentation animale" style="stroke:#181818;stroke-width:1.0;"/><polygon fill="#181818" points="1748.39,147.43,1741.1048,140.8024,1743.6437,145.8574,1738.5887,148.3964,1748.39,147.43" style="stroke:#181818;stroke-width:1.0;"/></g><!--MD5=[1ebd9067debf232df5ed262f334143cc]
link Utilisateur to Listes de courses--><g id="link_Utilisateur_Listes de courses"><path d="M1469.55,49.47 C1554.07,62.09 1780.06,97.5 1965.5,141.5 C1981.31,145.25 1998.35,149.99 2013.77,154.54 " fill="none" id="Utilisateur-to-Listes de courses" style="stroke:#181818;stroke-width:1.0;"/><polygon fill="#181818" points="2018.93,156.07,2011.4449,149.6689,2014.1377,154.6437,2009.1629,157.3365,2018.93,156.07" style="stroke:#181818;stroke-width:1.0;"/></g><!--MD5=[59a8f339eaa1d6abbec03c29bb5837bc]
link Administrateur to Gérer les utilisateurs--><g id="link_Administrateur_Gérer les utilisateurs"><path d="M2429.41,74.84 C2391.33,97.91 2339.93,129.05 2306.26,149.44 " fill="none" id="Administrateur-to-Gérer les utilisateurs" style="stroke:#181818;stroke-width:1.0;"/><polygon fill="#181818" points="2301.83,152.12,2311.5976,150.8573,2306.101,149.5203,2307.438,144.0237,2301.83,152.12" style="stroke:#181818;stroke-width:1.0;"/></g><!--MD5=[d7587b9719fd201bb90aeb9c03dcc924]
link Administrateur to Gérer les recettes--><g id="link_Administrateur_Gérer les recettes"><path d="M2479.5,81.62 C2479.5,102.67 2479.5,128.39 2479.5,146.74 " fill="none" id="Administrateur-to-Gérer les recettes" style="stroke:#181818;stroke-width:1.0;"/><polygon fill="#181818" points="2479.5,152.18,2483.5,143.18,2479.5,147.18,2475.5,143.18,2479.5,152.18" style="stroke:#181818;stroke-width:1.0;"/></g><!--MD5=[5e2291af03210a9a51a6c318a374210e]
link Administrateur to Voir les statistiques des utilisateurs--><g id="link_Administrateur_Voir les statistiques des utilisateurs"><path d="M2529.58,69.24 C2571.64,90.03 2631.81,119.76 2676.07,141.63 " fill="none" id="Administrateur-to-Voir les statistiques des utilisateurs" style="stroke:#181818;stroke-width:1.0;"/><polygon fill="#181818" points="2680.57,143.85,2674.2703,136.2795,2676.0865,141.6368,2670.7291,143.4531,2680.57,143.85" style="stroke:#181818;stroke-width:1.0;"/></g><!--MD5=[9e5a1ebb13ef20f09cf9bf370bc2fb11]
link Gérer les stocks to Ajouter un ingrédient--><g id="link_Gérer les stocks_Ajouter un ingrédient"><path d="M406.86,186.74 C343.02,208.56 220.99,250.28 150.79,274.28 " fill="none" id="Gérer les stocks-to-Ajouter un ingrédient" style="stroke:#181818;stroke-width:1.0;"/><polygon fill="#181818" points="145.82,275.98,155.6297,276.8578,150.5519,274.3646,153.045,269.2868,145.82,275.98" style="stroke:#181818;stroke-width:1.0;"/></g><!--MD5=[a438d388e6285efee247698b7de9225e]
link Gérer les stocks to Supprimer un ingrédient--><g id="link_Gérer les stocks_Supprimer un ingrédient"><path d="M431.4,189.19 C410.59,209.48 375.28,243.93 351.2,267.43 " fill="none" id="Gérer les stocks-to-Supprimer un ingrédient" style="stroke:#181818;stroke-width:1.0;"/><polygon fill="#181818" points="347.44,271.1,356.6745,267.6759,351.018,267.6075,351.0865,261.951,347.44,271.1" style="stroke:#181818;stroke-width:1.0;"/></g><!--MD5=[a12fb3be0353faef9fa225e38a0369ed]
link Gérer les stocks to Mettre à jour un ingrédient--><g id="link_Gérer les stocks_Mettre à jour un ingrédient"><path d="M465.46,189.19 C485.72,209.11 519.86,242.69 543.7,266.14 " fill="none" id="Gérer les stocks-to-Mettre à jour un ingrédient" style="stroke:#181818;stroke-width:1.0;"/><polygon fill="#181818" points="547.44,269.81,543.8305,260.6464,543.8761,266.3031,538.2194,266.3487,547.44,269.81" style="stroke:#181818;stroke-width:1.0;"/></g><!--MD5=[59ddfb0482a3f26a349b5e36901cbdd8]
link Planification des repas to Consulter les recettes--><g id="link_Planification des repas_Consulter les recettes"><path d="M1004.15,191.38 C962.47,213.03 894.29,248.45 850.68,271.11 " fill="none" id="Planification des repas-to-Consulter les recettes" style="stroke:#181818;stroke-width:1.0;"/><polygon fill="#181818" points="846.02,273.53,855.8514,272.9446,850.4603,271.2313,852.1736,265.8402,846.02,273.53" style="stroke:#181818;stroke-width:1.0;"/></g><!--MD5=[a61e1f05d4822a1295429e73024ebe1b]
link Planification des repas to Ajouter une planification--><g id="link_Planification des repas_Ajouter une planification"><path d="M1040.5,193.13 C1040.5,213.23 1040.5,243.88 1040.5,265.83 " fill="none" id="Planification des repas-to-Ajouter une planification" style="stroke:#181818;stroke-width:1.0;"/><polygon fill="#181818" points="1040.5,270.93,1044.5,261.93,1040.5,265.93,1036.5,261.93,1040.5,270.93" style="stroke:#181818;stroke-width:1.0;"/></g><!--MD5=[7b9c948cf038be82f0d1167f21b65b6e]
link Recommandations de recettes to Consulter les recettes recommandées--><g id="link_Recommandations de recettes_Consulter les recettes recommandées"><path d="M1312.75,198.54 C1314.87,215.42 1317.65,237.66 1319.97,256.26 " fill="none" id="Recommandations de recettes-to-Consulter les recettes recommandées" style="stroke:#181818;stroke-width:1.0;"/><polygon fill="#181818" points="1320.61,261.41,1323.4728,251.9864,1319.9951,256.448,1315.5336,252.9702,1320.61,261.41" style="stroke:#181818;stroke-width:1.0;"/></g><!--MD5=[f205e520fb524d6ef1e482e5ec3c5613]
link Recommandations de recettes to Voir les avis des utilisateurs--><g id="link_Recommandations de recettes_Voir les avis des utilisateurs"><path d="M1368.54,195.35 C1423.96,216.81 1506.36,248.71 1561.46,270.03 " fill="none" id="Recommandations de recettes-to-Voir les avis des utilisateurs" style="stroke:#181818;stroke-width:1.0;"/><polygon fill="#181818" points="1566.37,271.93,1559.4173,264.9544,1561.7062,270.1274,1556.5332,272.4164,1566.37,271.93" style="stroke:#181818;stroke-width:1.0;"/></g><!--MD5=[bc2b0942200e2472c1116ff16dc55a9b]
link Listes de courses to Générer la liste de courses--><g id="link_Listes de courses_Générer la liste de courses"><path d="M2050.83,189.95 C2035.4,209.65 2010.08,241.97 1991.99,265.06 " fill="none" id="Listes de courses-to-Générer la liste de courses" style="stroke:#181818;stroke-width:1.0;"/><polygon fill="#181818" points="1988.7,269.26,1997.3945,264.6334,1991.7796,265.321,1991.0921,259.706,1988.7,269.26" style="stroke:#181818;stroke-width:1.0;"/></g><!--MD5=[e702b7554606355b63e09db199177b67]
link Listes de courses to Ajouter des ingrédients à la liste--><g id="link_Listes de courses_Ajouter des ingrédients à la liste"><path d="M2089.11,189.19 C2117.66,208.54 2165.19,240.76 2199.59,264.08 " fill="none" id="Listes de courses-to-Ajouter des ingrédients à la liste" style="stroke:#181818;stroke-width:1.0;"/><polygon fill="#181818" points="2204.14,267.17,2198.9366,258.8079,2200.0019,264.3635,2194.4463,265.4289,2204.14,267.17" style="stroke:#181818;stroke-width:1.0;"/></g><!--MD5=[59f6a065f7679165e5e0e8180dc4f49a]
@startuml
actor Utilisateur
actor Administrateur

Utilisateur - -> (Gérer les stocks)
Utilisateur - -> (Planification des repas)
Utilisateur - -> (Recommandations de recettes)
Utilisateur - -> (Notifications de repas)
Utilisateur - -> (Gestion de l'alimentation animale)
Utilisateur - -> (Listes de courses)

Administrateur - -> (Gérer les utilisateurs)
Administrateur - -> (Gérer les recettes)
Administrateur - -> (Voir les statistiques des utilisateurs)

(Gérer les stocks) - -> (Ajouter un ingrédient)
(Gérer les stocks) - -> (Supprimer un ingrédient)
(Gérer les stocks) - -> (Mettre à jour un ingrédient)

(Planification des repas) - -> (Consulter les recettes)
(Planification des repas) - -> (Ajouter une planification)

(Recommandations de recettes) - -> (Consulter les recettes recommandées)
(Recommandations de recettes) - -> (Voir les avis des utilisateurs)

(Listes de courses) - -> (Générer la liste de courses)
(Listes de courses) - -> (Ajouter des ingrédients à la liste)
@enduml

PlantUML version 1.2022.7(Mon Aug 22 17:01:30 UTC 2022)
(GPL source distribution)
Java Runtime: OpenJDK Runtime Environment
JVM: OpenJDK 64-Bit Server VM
Default Encoding: UTF-8
Language: en
Country: null
--></g></svg>